<?xml version="1.0" standalone="yes"?>
<svg xmlns="http://www.w3.org/2000/svg" width="500" height="500">
<path style="fill:#fffaf4; stroke:none;" d="M0 0L0 500L500 500L500 0L0 0z"/>
<path style="fill:#ffffff; stroke:none;" d="M239 191L239 281L326 281C318.6 277.895 307.007 280 299 280L240 280L240 192C243.575 194.568 246.938 197.283 251 199C247.865 194.754 244.227 192.011 239 191z"/>
<path style="fill:#14130f; stroke:none;" d="M240 192L240 200C241.161 197.23 241.161 194.77 240 192z"/>
<path style="fill:#000000; stroke:none;" d="M324 192C314.709 200.533 303.922 207.433 294 215.21C290.959 217.593 286.247 222.854 282 222.296C277.798 221.745 273.274 216.833 270 214.373C260.483 207.224 251.36 198.903 241 193L241 280L325 280L325 219C325 210.993 327.105 199.4 324 192z"/>
<path style="fill:#979694; stroke:none;" d="M368.667 192.333C368.222 192.778 369.278 192.722 369.333 192.667C369.778 192.222 368.722 192.278 368.667 192.333z"/>
<path style="fill:#4f4e4c; stroke:none;" d="M370 192C371.248 192.685 371.548 192.749 373 193C371.752 192.315 371.452 192.251 370 192z"/>
<path style="fill:#3d3c3a; stroke:none;" d="M373 192C375.052 192.874 376.747 192.953 379 193C376.948 192.126 375.253 192.047 373 192z"/>
<path style="fill:#7d7c7a; stroke:none;" d="M379.667 192.333C379.222 192.778 380.278 192.722 380.333 192.667C380.778 192.222 379.722 192.278 379.667 192.333z"/>
<path style="fill:#acaba9; stroke:none;" d="M381 192L382 193L381 192z"/>
<path style="fill:#9e9a97; stroke:none;" d="M242 193L243 194L242 193z"/>
<path style="fill:#c8c7c3; stroke:none;" d="M322 193L323 194L322 193z"/>
<path style="fill:#d7d2cf; stroke:none;" d="M363 193L364 194L363 193z"/>
<path style="fill:#7d7c78; stroke:none;" d="M364 193L365 194L364 193z"/>
<path style="fill:#31302c; stroke:none;" d="M365 193L366 194L365 193z"/>
<path style="fill:#000000; stroke:none;" d="M366 193.465C361.06 194.355 356.371 196.372 352 198.796C318.385 217.442 326.175 269.885 362 280.56C368.713 282.56 377.104 282.779 384 281.535C389.258 280.588 394.431 278.485 399 275.743C431.462 256.264 424.295 205.981 389 194.52C382.118 192.285 373.11 192.183 366 193.465z"/>
<path style="fill:#585753; stroke:none;" d="M385 193L386 194L385 193z"/>
<path style="fill:#b1b1ac; stroke:none;" d="M386 193L387 194L386 193z"/>
<path style="fill:#6c6964; stroke:none;" d="M426 193C427.248 193.685 427.548 193.749 429 194C427.752 193.315 427.452 193.251 426 193z"/>
<path style="fill:#b2aeab; stroke:none;" d="M429 193C430.248 193.685 430.549 193.749 432 194C430.752 193.315 430.452 193.251 429 193z"/>
<path style="fill:#e9e6e1; stroke:none;" d="M56 194C63.1593 197.004 74.2562 195 82 195L141 195C133.841 191.996 122.744 194 115 194L56 194z"/>
<path style="fill:#ffffff; stroke:none;" d="M233 194L233 280L192 280L192 249L189 249L189 280C192.31 272.112 190 259.551 190 251C192.698 260.127 191 271.503 191 281L234 281L234 217C234 212.367 233.705 207.618 234.103 203C234.429 199.229 235.638 196.998 233 194z"/>
<path style="fill:#4b4a46; stroke:none;" d="M243 194L244 195L243 194z"/>
<path style="fill:#888887; stroke:none;" d="M321 194L322 195L321 194z"/>
<path style="fill:#b4b0ad; stroke:none;" d="M360 194L361 195L360 194z"/>
<path style="fill:#474340; stroke:none;" d="M361 194L362 195L361 194z"/>
<path style="fill:#858480; stroke:none;" d="M389 194L390 195L389 194z"/>
<path style="fill:#000000; stroke:none;" d="M426 194L426 202C428.081 202.108 430.045 202.195 432.004 203.009C445.479 208.607 437.323 225.401 440.653 236C442.527 241.967 447.53 244.201 453 246C448.36 248.199 443.227 249.864 441.148 255.015C436.815 265.754 445.498 281.9 432.997 288.86C430.839 290.062 428.384 290.5 426 291L426 299C434.377 298.826 444.544 296.398 448.347 287.999C452.986 277.756 444.314 258.828 456.043 252.453C458.75 250.981 462.015 250.581 465 250L465 242C462.953 241.906 460.969 241.828 458.995 241.196C444.261 236.479 452.409 218.062 449.211 207C446.149 196.41 435.741 194.027 426 194z"/>
<path style="fill:#393631; stroke:none;" d="M434 194L435 195L434 194z"/>
<path style="fill:#878380; stroke:none;" d="M435 194L436 195L435 194z"/>
<path style="fill:#000000; stroke:none;" d="M56 195C61.4004 217.683 50.0185 243.408 64.2207 264C81.9765 289.744 123.011 285.4 136.623 258C141.111 248.965 141 238.812 141 229L141 195L56 195M148 195L148 280C154.513 278.449 161.342 279 168 279C174.658 279 181.487 278.449 188 280L188 248L193 248L193 279L232 279L232 195L192 195C193.824 202.661 193.143 211.155 192.995 219C192.965 220.589 193.095 226.016 190.17 225.369C187.521 224.783 188.014 219.91 188.001 218C187.948 210.334 188 202.666 188 195L148 195z"/>
<path style="fill:#7b7774; stroke:none;" d="M188 195L188 226C189.328 222.834 189 219.419 189 216C189 209.58 190.497 200.951 188 195z"/>
<path style="fill:#25211d; stroke:none;" d="M232 195L232 280C234.395 274.293 233 266.154 233 260L233 217C233 210.314 234.599 201.194 232 195z"/>
<path style="fill:#42423d; stroke:none;" d="M320 195L321 196L320 195z"/>
<path style="fill:#63605b; stroke:none;" d="M358 195L359 196L358 195z"/>
<path style="fill:#312d2a; stroke:none;" d="M391 195L392 196L391 195z"/>
<path style="fill:#aba8a2; stroke:none;" d="M392 195L393 196L392 195z"/>
<path style="fill:#777370; stroke:none;" d="M438 195L439 196L438 195z"/>
<path style="fill:#1a1915; stroke:none;" d="M56 196L56 240C57.4412 236.565 57 232.702 57 229L57 208C57 204.017 57.552 199.699 56 196z"/>
<path style="fill:#1e1c1b; stroke:none;" d="M192 196L192 226C194.395 220.293 193 212.154 193 206C193 202.581 193.328 199.166 192 196z"/>
<path style="fill:#a49f9c; stroke:none;" d="M246 196L247 197L246 196z"/>
<path style="fill:#d4d1cc; stroke:none;" d="M318 196L319 197L318 196z"/>
<path style="fill:#cecac7; stroke:none;" d="M355 196L356 197L355 196z"/>
<path style="fill:#373330; stroke:none;" d="M356 196L357 197L356 196z"/>
<path style="fill:#878380; stroke:none;" d="M394 196L395 197L394 196z"/>
<path style="fill:#484443; stroke:none;" d="M440 196L441 197L440 196z"/>
<path style="fill:#5b5653; stroke:none;" d="M247 197L248 198L247 197z"/>
<path style="fill:#8e8986; stroke:none;" d="M317 197L318 198L317 197z"/>
<path style="fill:#c9c4c1; stroke:none;" d="M353 197L354 198L353 197z"/>
<path style="fill:#332e2b; stroke:none;" d="M354 197L355 198L354 197z"/>
<path style="fill:#8a8582; stroke:none;" d="M396 197L397 198L396 197z"/>
<path style="fill:#6e6969; stroke:none;" d="M442 197L443 198L442 197z"/>
<path style="fill:#3f3e3a; stroke:none;" d="M316 198L317 199L316 198z"/>
<path style="fill:#504f4b; stroke:none;" d="M352 198L353 199L352 198z"/>
<path style="fill:#b2b1af; stroke:none;" d="M398 198L399 199L398 198z"/>
<path style="fill:#aea8a4; stroke:none;" d="M250 199L251 200L250 199z"/>
<path style="fill:#d4d3cf; stroke:none;" d="M314 199L315 200L314 199z"/>
<path style="fill:#918e89; stroke:none;" d="M350 199L351 200L350 199z"/>
<path style="fill:#403f3a; stroke:none;" d="M399 199L400 200L399 199z"/>
<path style="fill:#c8c4c1; stroke:none;" d="M445 199L446 200L445 199z"/>
<path style="fill:#262523; stroke:none;" d="M240 200L240 216C241.812 211.681 241.812 204.319 240 200z"/>
<path style="fill:#64615c; stroke:none;" d="M251 200L252 201L251 200z"/>
<path style="fill:#969593; stroke:none;" d="M313 200L314 201L313 200z"/>
<path style="fill:#a6a39e; stroke:none;" d="M401 200L402 201L401 200z"/>
<path style="fill:#d4d4d2; stroke:none;" d="M446 200L447 201L446 200z"/>
<path style="fill:#494846; stroke:none;" d="M312 201L313 202L312 201z"/>
<path style="fill:#c2c0bc; stroke:none;" d="M347 201L348 202L347 201z"/>
<path style="fill:#56524f; stroke:none;" d="M402 201L403 202L402 201z"/>
<path style="fill:#bcbcb8; stroke:none;" d="M254 202L255 203L254 202z"/>
<path style="fill:#6f6e6d; stroke:none;" d="M346 202L347 203L346 202z"/>
<path style="fill:#e3e0da; stroke:none;" d="M426 202C427.248 202.685 427.548 202.749 429 203C427.752 202.315 427.452 202.251 426 202z"/>
<path style="fill:#a5a19d; stroke:none;" d="M429 202L430 203L429 202z"/>
<path style="fill:#64605f; stroke:none;" d="M430 202L431 203L430 202z"/>
<path style="fill:#2d2c2a; stroke:none;" d="M431 202L432 203L431 202z"/>
<path style="fill:#53524d; stroke:none;" d="M447 202L448 203L447 202z"/>
<path style="fill:#6c6b67; stroke:none;" d="M255 203L256 204L255 203z"/>
<path style="fill:#9a9592; stroke:none;" d="M309 203L310 204L309 203z"/>
<path style="fill:#575651; stroke:none;" d="M345 203L346 204L345 203z"/>
<path style="fill:#93928e; stroke:none;" d="M433 203L434 204L433 203z"/>
<path style="fill:#555150; stroke:none;" d="M308 204L309 205L308 204z"/>
<path style="fill:#434240; stroke:none;" d="M344 204L345 205L344 204z"/>
<path style="fill:#cac5c2; stroke:none;" d="M406 204L407 205L406 204z"/>
<path style="fill:#83827e; stroke:none;" d="M435 204L436 205L435 204z"/>
<path style="fill:#55524c; stroke:none;" d="M448 204L449 205L448 204z"/>
<path style="fill:#bfbbb8; stroke:none;" d="M258 205L259 206L258 205z"/>
<path style="fill:#bbb7b4; stroke:none;" d="M407 205L408 206L407 205z"/>
<path style="fill:#c6c1be; stroke:none;" d="M436 205L437 206L436 205z"/>
<path style="fill:#7d7976; stroke:none;" d="M259 206L260 207L259 206z"/>
<path style="fill:#a5a5a3; stroke:none;" d="M305 206L306 207L305 206z"/>
<path style="fill:#44403d; stroke:none;" d="M342 206L343 207L342 206z"/>
<path style="fill:#cdc8c5; stroke:none;" d="M408 206L409 207L408 206z"/>
<path style="fill:#bcb9b3; stroke:none;" d="M437 206L438 207L437 206z"/>
<path style="fill:#bbb5af; stroke:none;" d="M449 206L450 207L449 206z"/>
<path style="fill:#565654; stroke:none;" d="M304 207L305 208L304 207z"/>
<path style="fill:#56524d; stroke:none;" d="M341 207L342 208L341 207z"/>
<path style="fill:#3a3532; stroke:none;" d="M438 207L439 208L438 207z"/>
<path style="fill:#625d59; stroke:none;" d="M449 207L450 208L449 207z"/>
<path style="fill:#c5c5c1; stroke:none;" d="M262 208L263 209L262 208z"/>
<path style="fill:#716d6a; stroke:none;" d="M340 208L341 209L340 208z"/>
<path style="fill:#d4d0cd; stroke:none;" d="M438 208L439 209L438 208z"/>
<path style="fill:#83827e; stroke:none;" d="M263 209L264 210L263 209z"/>
<path style="fill:#adaca8; stroke:none;" d="M301 209L302 210L301 209z"/>
<path style="fill:#b0aca9; stroke:none;" d="M339 209L340 210L339 209z"/>
<path style="fill:#322d2c; stroke:none;" d="M410 209L411 210L410 209z"/>
<path style="fill:#3c3b37; stroke:none;" d="M264 210L265 211L264 210z"/>
<path style="fill:#656460; stroke:none;" d="M300 210L301 211L300 210z"/>
<path style="fill:#7a7975; stroke:none;" d="M411 210L412 211L411 210z"/>
<path style="fill:#433e3b; stroke:none;" d="M439 210L440 211L439 210z"/>
<path style="fill:#cdc8c6; stroke:none;" d="M266 211L267 212L266 211z"/>
<path style="fill:#cac5c2; stroke:none;" d="M412 211L413 212L412 211z"/>
<path style="fill:#898581; stroke:none;" d="M439.333 211.667C439.278 211.722 439.222 212.778 439.667 212.333C439.722 212.278 439.778 211.222 439.333 211.667z"/>
<path style="fill:#8e8e88; stroke:none;" d="M267 212L268 213L267 212z"/>
<path style="fill:#b8b7b3; stroke:none;" d="M297 212L298 213L297 212z"/>
<path style="fill:#757570; stroke:none;" d="M337 212L338 213L337 212z"/>
<path style="fill:#ede8e5; stroke:none;" d="M450 212L450 230C451.952 225.349 451.952 216.651 450 212z"/>
<path style="fill:#3f3a37; stroke:none;" d="M268 213L269 214L268 213z"/>
<path style="fill:#696864; stroke:none;" d="M296 213L297 214L296 213z"/>
<path style="fill:#686862; stroke:none;" d="M413 213L414 214L413 213z"/>
<path style="fill:#a19c99; stroke:none;" d="M439 213L439 233C441.087 228.027 441.087 217.973 439 213z"/>
<path style="fill:#cecdc9; stroke:none;" d="M270 214L271 215L270 214z"/>
<path style="fill:#403f3b; stroke:none;" d="M336 214L337 215L336 214z"/>
<path style="fill:#8c8c87; stroke:none;" d="M271 215L272 216L271 215z"/>
<path style="fill:#c0beb8; stroke:none;" d="M293 215L294 216L293 215z"/>
<path style="fill:#adada8; stroke:none;" d="M335 215L336 216L335 215z"/>
<path style="fill:#343331; stroke:none;" d="M240 216L240 232C241.812 227.681 241.812 220.319 240 216z"/>
<path style="fill:#4c4845; stroke:none;" d="M272 216L273 217L272 216z"/>
<path style="fill:#75716e; stroke:none;" d="M292 216L293 217L292 216z"/>
<path style="fill:#e9e5e2; stroke:none;" d="M325 216L325 232C326.812 227.681 326.812 220.319 325 216z"/>
<path style="fill:#b5b4af; stroke:none;" d="M415 216L416 217L415 216z"/>
<path style="fill:#d8d3d0; stroke:none;" d="M274 217L275 218L274 217z"/>
<path style="fill:#34302d; stroke:none;" d="M291 217L292 218L291 217z"/>
<path style="fill:#9d9c98; stroke:none;" d="M334 217L335 218L334 217z"/>
<path style="fill:#2c2b27; stroke:none;" d="M415 217L416 218L415 217z"/>
<path style="fill:#989792; stroke:none;" d="M275 218L276 219L275 218z"/>
<path style="fill:#d1cdca; stroke:none;" d="M289 218L290 219L289 218z"/>
<path style="fill:#cac7c1; stroke:none;" d="M416 218L417 219L416 218z"/>
<path style="fill:#504f4d; stroke:none;" d="M276 219L277 220L276 219z"/>
<path style="fill:#7e7a77; stroke:none;" d="M288 219L289 220L288 219z"/>
<path style="fill:#bab7b1; stroke:none;" d="M333 219L334 220L333 219z"/>
<path style="fill:#36322e; stroke:none;" d="M416 219L417 220L416 219z"/>
<path style="fill:#393534; stroke:none;" d="M287 220L288 221L287 220z"/>
<path style="fill:#3e3d39; stroke:none;" d="M333 220L334 221L333 220z"/>
<path style="fill:#a4a39d; stroke:none;" d="M279 221L280 222L279 221z"/>
<path style="fill:#d3cfcc; stroke:none;" d="M285 221L286 222L285 221z"/>
<path style="fill:#7b7571; stroke:none;" d="M417 221L418 222L417 221z"/>
<path style="fill:#53524c; stroke:none;" d="M280 222L281 223L280 222z"/>
<path style="fill:#918c8c; stroke:none;" d="M284 222L285 223L284 222z"/>
<path style="fill:#8f8f8a; stroke:none;" d="M332 222L333 223L332 222z"/>
<path style="fill:#3c3b39; stroke:none;" d="M283 223L284 224L283 223z"/>
<path style="fill:#c9c3c0; stroke:none;" d="M418 223L419 224L418 223z"/>
<path style="fill:#6d6867; stroke:none;" d="M418 224L419 225L418 224z"/>
<path style="fill:#aaa5a2; stroke:none;" d="M331 225L332 226L331 225z"/>
<path style="fill:#333331; stroke:none;" d="M189 226C190.248 226.685 190.548 226.749 192 227C190.752 226.315 190.452 226.251 189 226z"/>
<path style="fill:#4d4946; stroke:none;" d="M331 226L332 227L331 226z"/>
<path style="fill:#b6b5b1; stroke:none;" d="M419 227L420 228L419 227z"/>
<path style="fill:#6f6f6a; stroke:none;" d="M419 228L420 229L419 228z"/>
<path style="fill:#c1bdba; stroke:none;" d="M330 229L331 230L330 229z"/>
<path style="fill:#61605c; stroke:none;" d="M372 229L373 230L372 229z"/>
<path style="fill:#c0bfbb; stroke:none;" d="M373.667 229.333C373.222 229.778 374.278 229.722 374.333 229.667C374.778 229.222 373.722 229.278 373.667 229.333z"/>
<path style="fill:#84837f; stroke:none;" d="M375 229L376 230L375 229z"/>
<path style="fill:#353430; stroke:none;" d="M376 229L377 230L376 229z"/>
<path style="fill:#3a3935; stroke:none;" d="M419 229L420 230L419 229z"/>
<path style="fill:#8f8a87; stroke:none;" d="M330 230L331 231L330 230z"/>
<path style="fill:#fffbf5; stroke:none;" d="M371.449 231.032C367.098 234.051 372.45 240.573 376.682 237.953C381.622 234.895 376.005 227.872 371.449 231.032z"/>
<path style="fill:#b0ada8; stroke:none;" d="M377 230L378 231L377 230z"/>
<path style="fill:#d6d1ce; stroke:none;" d="M450 230L450 233C450.696 231.446 450.696 231.554 450 230z"/>
<path style="fill:#64605d; stroke:none;" d="M330 231L331 232L330 231z"/>
<path style="fill:#b8b4b1; stroke:none;" d="M378 231L379 232L378 231z"/>
<path style="fill:#42413f; stroke:none;" d="M240 232L240 256C242.349 250.403 242.349 237.597 240 232z"/>
<path style="fill:#dad6d2; stroke:none;" d="M325 232L325 256C327.349 250.403 327.349 237.597 325 232z"/>
<path style="fill:#201b18; stroke:none;" d="M330.333 232.667C330.278 232.722 330.222 233.778 330.667 233.333C330.722 233.278 330.778 232.222 330.333 232.667z"/>
<path style="fill:#908c88; stroke:none;" d="M369 232L370 233L369 232z"/>
<path style="fill:#3f3b37; stroke:none;" d="M379 232L380 233L379 232z"/>
<path style="fill:#d0ccc9; stroke:none;" d="M420.333 232.667C420.278 232.722 420.222 233.778 420.667 233.333C420.722 233.278 420.778 232.222 420.333 232.667z"/>
<path style="fill:#8c8983; stroke:none;" d="M379 233L380 234L379 233z"/>
<path style="fill:#908f8d; stroke:none;" d="M450 233L451 234L450 233z"/>
<path style="fill:#bdb9b4; stroke:none;" d="M379 234L380 235L379 234z"/>
<path style="fill:#95908d; stroke:none;" d="M420 234L420 240C420.951 237.715 420.951 236.285 420 234z"/>
<path style="fill:#353331; stroke:none;" d="M450 234L451 235L450 234z"/>
<path style="fill:#c9c9c7; stroke:none;" d="M369 235L370 236L369 235z"/>
<path style="fill:#84837f; stroke:none;" d="M379 235L380 236L379 235z"/>
<path style="fill:#6f6e6c; stroke:none;" d="M369 236L370 237L369 236z"/>
<path style="fill:#585755; stroke:none;" d="M440 236L441 237L440 236z"/>
<path style="fill:#5e5d59; stroke:none;" d="M451 236L452 237L451 236z"/>
<path style="fill:#cfcac7; stroke:none;" d="M370 237L371 238L370 237z"/>
<path style="fill:#767672; stroke:none;" d="M378 237L379 238L378 237z"/>
<path style="fill:#d1d1cf; stroke:none;" d="M440 237L441 238L440 237z"/>
<path style="fill:#d7d2cf; stroke:none;" d="M452 237L453 238L452 237z"/>
<path style="fill:#8b8b85; stroke:none;" d="M371 238L372 239L371 238z"/>
<path style="fill:#514e46; stroke:none;" d="M377 238L378 239L377 238z"/>
<path style="fill:#2d2c2a; stroke:none;" d="M441 238L442 239L441 238z"/>
<path style="fill:#c5c4bf; stroke:none;" d="M453 238L454 239L453 238z"/>
<path style="fill:#585550; stroke:none;" d="M373.667 239.333C373.222 239.778 374.278 239.722 374.333 239.667C374.778 239.222 373.722 239.278 373.667 239.333z"/>
<path style="fill:#ccccca; stroke:none;" d="M441 239L442 240L441 239z"/>
<path style="fill:#797671; stroke:none;" d="M454 239L455 240L454 239z"/>
<path style="fill:#3b3b36; stroke:none;" d="M56 240L56 244C56.7102 242.241 56.7102 241.759 56 240z"/>
<path style="fill:#c9c8c4; stroke:none;" d="M420.333 240.667C420.278 240.722 420.222 241.778 420.667 241.333C420.722 241.278 420.778 240.222 420.333 240.667z"/>
<path style="fill:#817d79; stroke:none;" d="M442 240L443 241L442 240z"/>
<path style="fill:#74736f; stroke:none;" d="M456 240L457 241L456 240z"/>
<path style="fill:#cdccc8; stroke:none;" d="M457 240L458 241L457 240z"/>
<path style="fill:#645f5c; stroke:none;" d="M443 241L444 242L443 241z"/>
<path style="fill:#3c3b39; stroke:none;" d="M459 241L460 242L459 241z"/>
<path style="fill:#9c9b99; stroke:none;" d="M460.667 241.333C460.222 241.778 461.278 241.722 461.333 241.667C461.778 241.222 460.722 241.278 460.667 241.333z"/>
<path style="fill:#c3bebb; stroke:none;" d="M462 241C463.248 241.685 463.548 241.749 465 242C463.752 241.315 463.452 241.251 462 241z"/>
<path style="fill:#3c3734; stroke:none;" d="M330 242L331 243L330 242z"/>
<path style="fill:#7c7b77; stroke:none;" d="M444 242L445 243L444 242z"/>
<path style="fill:#6c6864; stroke:none;" d="M330 243L331 244L330 243z"/>
<path style="fill:#6e6a67; stroke:none;" d="M373.667 243.333C373.222 243.778 374.278 243.722 374.333 243.667C374.778 243.222 373.722 243.278 373.667 243.333z"/>
<path style="fill:#393532; stroke:none;" d="M375 243L376 244L375 243z"/>
<path style="fill:#84837e; stroke:none;" d="M56 244L57 245L56 244z"/>
<path style="fill:#3f3a37; stroke:none;" d="M140 244L141 245L140 244z"/>
<path style="fill:#9e9a97; stroke:none;" d="M330 244L331 245L330 244z"/>
<path style="fill:#979692; stroke:none;" d="M371 244L372 245L371 244z"/>
<path style="fill:#fffaf4; stroke:none;" d="M373 257C374.657 255.765 376.149 254.734 377.282 252.941C382.515 244.655 370.016 241.542 369.863 248.98C369.807 251.667 372.28 254.414 373 257z"/>
<path style="fill:#615c59; stroke:none;" d="M377 244L378 245L377 244z"/>
<path style="fill:#bfbeba; stroke:none;" d="M447 244L448 245L447 244z"/>
<path style="fill:#424240; stroke:none;" d="M448 244L449 245L448 244z"/>
<path style="fill:#b3b3ae; stroke:none;" d="M56 245L57 246L56 245z"/>
<path style="fill:#716d69; stroke:none;" d="M140 245L141 246L140 245z"/>
<path style="fill:#c9c5c2; stroke:none;" d="M330 245L331 246L330 245z"/>
<path style="fill:#c8c7c2; stroke:none;" d="M370 245L371 246L370 245z"/>
<path style="fill:#7a7572; stroke:none;" d="M378 245L379 246L378 245z"/>
<path style="fill:#41413c; stroke:none;" d="M419 245L420 246L419 245z"/>
<path style="fill:#ababab; stroke:none;" d="M450 245L451 246L450 245z"/>
<path style="fill:#707070; stroke:none;" d="M451 245L452 246L451 245z"/>
<path style="fill:#cbc8c2; stroke:none;" d="M140.333 246.667C140.278 246.722 140.222 247.778 140.667 247.333C140.722 247.278 140.778 246.222 140.333 246.667z"/>
<path style="fill:#70706b; stroke:none;" d="M369 246L370 247L369 246z"/>
<path style="fill:#7a7974; stroke:none;" d="M419 246L420 247L419 246z"/>
<path style="fill:#b9b9b6; stroke:none;" d="M452 246L453 247L452 246z"/>
<path style="fill:#c7c6c2; stroke:none;" d="M369 247L370 248L369 247z"/>
<path style="fill:#7e7a75; stroke:none;" d="M379 247L380 248L379 247z"/>
<path style="fill:#bdbcb8; stroke:none;" d="M419 247L420 248L419 247z"/>
<path style="fill:#7b7977; stroke:none;" d="M449 247L450 248L449 247z"/>
<path style="fill:#353432; stroke:none;" d="M188 248L189 249L188 248z"/>
<path style="fill:#6b6a66; stroke:none;" d="M189 248C190.248 248.685 190.548 248.749 192 249C190.752 248.315 190.452 248.251 189 248z"/>
<path style="fill:#1e1c1b; stroke:none;" d="M192 248L192 280C193.328 276.834 193 273.419 193 270C193 263.314 194.599 254.194 192 248z"/>
<path style="fill:#625e5a; stroke:none;" d="M331 248L332 249L331 248z"/>
<path style="fill:#a19d9a; stroke:none;" d="M379.333 248.667C379.278 248.722 379.222 249.778 379.667 249.333C379.722 249.278 379.778 248.222 379.333 248.667z"/>
<path style="fill:#cdc9c6; stroke:none;" d="M446 248L447 249L446 248z"/>
<path style="fill:#34302c; stroke:none;" d="M447 248L448 249L447 248z"/>
<path style="fill:#716c69; stroke:none;" d="M57 249L58 250L57 249z"/>
<path style="fill:#302f2b; stroke:none;" d="M139 249L140 250L139 249z"/>
<path style="fill:#7b7774; stroke:none;" d="M188 249L188 280C189.328 276.834 189 273.419 189 270C189 263.58 190.497 254.951 188 249z"/>
<path style="fill:#afaba8; stroke:none;" d="M331 249L332 250L331 249z"/>
<path style="fill:#332f2b; stroke:none;" d="M418 249L419 250L418 249z"/>
<path style="fill:#56514e; stroke:none;" d="M445 249L446 250L445 249z"/>
<path style="fill:#ccc7c4; stroke:none;" d="M57 250L58 251L57 250z"/>
<path style="fill:#817d7a; stroke:none;" d="M139 250L140 251L139 250z"/>
<path style="fill:#a7a7a2; stroke:none;" d="M369 250L370 251L369 250z"/>
<path style="fill:#504c48; stroke:none;" d="M379 250L380 251L379 250z"/>
<path style="fill:#7d7875; stroke:none;" d="M418 250L419 251L418 250z"/>
<path style="fill:#3c3b37; stroke:none;" d="M462 250C463.248 250.685 463.548 250.749 465 251C463.752 250.315 463.452 250.251 462 250z"/>
<path style="fill:#d4d2cc; stroke:none;" d="M139 251L140 252L139 251z"/>
<path style="fill:#d2cecb; stroke:none;" d="M378 251L379 252L378 251z"/>
<path style="fill:#393934; stroke:none;" d="M457 251L458 252L457 251z"/>
<path style="fill:#969691; stroke:none;" d="M458 251L459 252L458 251z"/>
<path style="fill:#3a3938; stroke:none;" d="M58 252L59 253L58 252z"/>
<path style="fill:#a5a4a0; stroke:none;" d="M332 252L333 253L332 252z"/>
<path style="fill:#7d7c78; stroke:none;" d="M455 252L456 253L455 252z"/>
<path style="fill:#bab9b5; stroke:none;" d="M58 253L59 254L58 253z"/>
<path style="fill:#706b68; stroke:none;" d="M138 253L139 254L138 253z"/>
<path style="fill:#837f7c; stroke:none;" d="M372 253L373 254L372 253z"/>
<path style="fill:#8f8b88; stroke:none;" d="M417 253L418 254L417 253z"/>
<path style="fill:#80807b; stroke:none;" d="M441 253L442 254L441 253z"/>
<path style="fill:#454442; stroke:none;" d="M453 253L454 254L453 253z"/>
<path style="fill:#4e4d48; stroke:none;" d="M333 254L334 255L333 254z"/>
<path style="fill:#1a1917; stroke:none;" d="M372.333 254.667C372.278 254.722 372.222 255.778 372.667 255.333C372.722 255.278 372.778 254.222 372.333 254.667z"/>
<path style="fill:#494542; stroke:none;" d="M376 254L377 255L376 254z"/>
<path style="fill:#62615d; stroke:none;" d="M452 254L453 255L452 254z"/>
<path style="fill:#645f5c; stroke:none;" d="M59 255L60 256L59 255z"/>
<path style="fill:#cecdc9; stroke:none;" d="M333 255L334 256L333 255z"/>
<path style="fill:#7e7d78; stroke:none;" d="M375 255L376 256L375 255z"/>
<path style="fill:#4d4845; stroke:none;" d="M416 255L417 256L416 255z"/>
<path style="fill:#92928d; stroke:none;" d="M440 255L441 256L440 255z"/>
<path style="fill:#aaa7a2; stroke:none;" d="M137 256L138 257L137 256z"/>
<path style="fill:#575654; stroke:none;" d="M240 256L240 280C242.349 274.403 242.349 261.597 240 256z"/>
<path style="fill:#c9c8c2; stroke:none;" d="M325 256L325 280C327.349 274.403 327.349 261.597 325 256z"/>
<path style="fill:#302d27; stroke:none;" d="M334 256L335 257L334 256z"/>
<path style="fill:#b5b3b5; stroke:none;" d="M374 256L375 257L374 256z"/>
<path style="fill:#32312d; stroke:none;" d="M440 256L441 257L440 256z"/>
<path style="fill:#d0cbc8; stroke:none;" d="M451 256L452 257L451 256z"/>
<path style="fill:#4e4d49; stroke:none;" d="M60 257L61 258L60 257z"/>
<path style="fill:#c6c0bc; stroke:none;" d="M334 257L335 258L334 257z"/>
<path style="fill:#494949; stroke:none;" d="M373 257L374 258L373 257z"/>
<path style="fill:#41403b; stroke:none;" d="M415 257L416 258L415 257z"/>
<path style="fill:#a5a19c; stroke:none;" d="M136 258L137 259L136 258z"/>
<path style="fill:#cfceca; stroke:none;" d="M415 258L416 259L415 258z"/>
<path style="fill:#696562; stroke:none;" d="M450 258L451 259L450 258z"/>
<path style="fill:#52514d; stroke:none;" d="M61 259L62 260L61 259z"/>
<path style="fill:#cac6c2; stroke:none;" d="M335 259L336 260L335 259z"/>
<path style="fill:#525351; stroke:none;" d="M414 259L415 260L414 259z"/>
<path style="fill:#9f9b98; stroke:none;" d="M439 259L439 280C441.153 274.869 441.153 264.131 439 259z"/>
<path style="fill:#ccc7c4; stroke:none;" d="M450.333 259.667C450.278 259.722 450.222 260.778 450.667 260.333C450.722 260.278 450.778 259.222 450.333 259.667z"/>
<path style="fill:#bcbbb7; stroke:none;" d="M135 260L136 261L135 260z"/>
<path style="fill:#585453; stroke:none;" d="M336 260L337 261L336 260z"/>
<path style="fill:#858482; stroke:none;" d="M62 261L63 262L62 261z"/>
<path style="fill:#44433f; stroke:none;" d="M134 261L135 262L134 261z"/>
<path style="fill:#81807c; stroke:none;" d="M413 261L414 262L413 261z"/>
<path style="fill:#ede9e5; stroke:none;" d="M450 261L450 281C452.087 276.027 452.087 265.973 450 261z"/>
<path style="fill:#9a9594; stroke:none;" d="M337 262L338 263L337 262z"/>
<path style="fill:#999994; stroke:none;" d="M133 263L134 264L133 263z"/>
<path style="fill:#3d3d3b; stroke:none;" d="M338 263L339 264L338 263z"/>
<path style="fill:#90908e; stroke:none;" d="M64 264L65 265L64 264z"/>
<path style="fill:#4f4b48; stroke:none;" d="M132 264L133 265L132 264z"/>
<path style="fill:#a39f9c; stroke:none;" d="M411 264L412 265L411 264z"/>
<path style="fill:#3f3f3d; stroke:none;" d="M65 265L66 266L65 265z"/>
<path style="fill:#c8c4c1; stroke:none;" d="M339 265L340 266L339 265z"/>
<path style="fill:#5f5a57; stroke:none;" d="M410 265L411 266L410 265z"/>
<path style="fill:#94908d; stroke:none;" d="M340 266L341 267L340 266z"/>
<path style="fill:#d3d0cb; stroke:none;" d="M130 267L131 268L130 267z"/>
<path style="fill:#807c79; stroke:none;" d="M341 267L342 268L341 267z"/>
<path style="fill:#b6b0aa; stroke:none;" d="M129 268L130 269L129 268z"/>
<path style="fill:#686461; stroke:none;" d="M342 268L343 269L342 268z"/>
<path style="fill:#a5a29d; stroke:none;" d="M128 269L129 270L128 269z"/>
<path style="fill:#54504d; stroke:none;" d="M343 269L344 270L343 269z"/>
<path style="fill:#c1c0be; stroke:none;" d="M127 270L128 271L127 270z"/>
<path style="fill:#6b6a68; stroke:none;" d="M344 270L345 271L344 270z"/>
<path style="fill:#cccbc9; stroke:none;" d="M126 271L127 272L126 271z"/>
<path style="fill:#898987; stroke:none;" d="M345 271L346 272L345 271z"/>
<path style="fill:#5b5753; stroke:none;" d="M72 272L73 273L72 272z"/>
<path style="fill:#a09b98; stroke:none;" d="M346 272L347 273L346 272z"/>
<path style="fill:#45423c; stroke:none;" d="M403 272L404 273L403 272z"/>
<path style="fill:#999592; stroke:none;" d="M73 273L74 274L73 273z"/>
<path style="fill:#6e6d69; stroke:none;" d="M123 273L124 274L123 273z"/>
<path style="fill:#938d87; stroke:none;" d="M402 273L403 274L402 273z"/>
<path style="fill:#b9b5b2; stroke:none;" d="M122 274L123 275L122 274z"/>
<path style="fill:#5a5552; stroke:none;" d="M349 274L350 275L349 274z"/>
<path style="fill:#969591; stroke:none;" d="M76 275L77 276L76 275z"/>
<path style="fill:#696864; stroke:none;" d="M120 275L121 276L120 275z"/>
<path style="fill:#bab9b5; stroke:none;" d="M350 275L351 276L350 275z"/>
<path style="fill:#696864; stroke:none;" d="M399 275L400 276L399 275z"/>
<path style="fill:#5c5c56; stroke:none;" d="M78 276L79 277L78 276z"/>
<path style="fill:#3c3837; stroke:none;" d="M118 276L119 277L118 276z"/>
<path style="fill:#7d7976; stroke:none;" d="M352 276L353 277L352 276z"/>
<path style="fill:#363531; stroke:none;" d="M397 276L398 277L397 276z"/>
<path style="fill:#696864; stroke:none;" d="M80 277L81 278L80 277z"/>
<path style="fill:#42413f; stroke:none;" d="M116 277L117 278L116 277z"/>
<path style="fill:#d5d4d0; stroke:none;" d="M117 277L118 278L117 277z"/>
<path style="fill:#595451; stroke:none;" d="M354 277L355 278L354 277z"/>
<path style="fill:#aaaaa5; stroke:none;" d="M396 277L397 278L396 277z"/>
<path style="fill:#898481; stroke:none;" d="M82 278L83 279L82 278z"/>
<path style="fill:#64605c; stroke:none;" d="M114 278L115 279L114 278z"/>
<path style="fill:#6a6661; stroke:none;" d="M356 278L357 279L356 278z"/>
<path style="fill:#32322d; stroke:none;" d="M393 278L394 279L393 278z"/>
<path style="fill:#bfbab7; stroke:none;" d="M394 278L395 279L394 278z"/>
<path style="fill:#cececa; stroke:none;" d="M84 279L85 280L84 279z"/>
<path style="fill:#61605b; stroke:none;" d="M85 279L86 280L85 279z"/>
<path style="fill:#3e3d38; stroke:none;" d="M111 279L112 280L111 279z"/>
<path style="fill:#b8b4b1; stroke:none;" d="M112 279L113 280L112 279z"/>
<path style="fill:#100f0a; stroke:none;" d="M149 279C152.959 280.661 157.74 280 162 280L187 280C183.041 278.339 178.26 279 174 279L149 279M193 279C196.959 280.661 201.74 280 206 280L232 280C228.041 278.339 223.26 279 219 279L193 279z"/>
<path style="fill:#908b88; stroke:none;" d="M358 279L359 280L358 279z"/>
<path style="fill:#605f5a; stroke:none;" d="M391 279L392 280L391 279z"/>
<path style="fill:#cfceca; stroke:none;" d="M392 279L393 280L392 279z"/>
<path style="fill:#948f8c; stroke:none;" d="M88 280L89 281L88 280z"/>
<path style="fill:#4d4945; stroke:none;" d="M89 280L90 281L89 280z"/>
<path style="fill:#7f7e79; stroke:none;" d="M108 280L109 281L108 280z"/>
<path style="fill:#d7d6d1; stroke:none;" d="M109 280L110 281L109 280z"/>
<path style="fill:#7a7975; stroke:none;" d="M361 280L362 281L361 280z"/>
<path style="fill:#484743; stroke:none;" d="M388 280L389 281L388 280z"/>
<path style="fill:#b3b2ae; stroke:none;" d="M389 280L390 281L389 280z"/>
<path style="fill:#65615d; stroke:none;" d="M439.333 280.667C439.278 280.722 439.222 281.778 439.667 281.333C439.722 281.278 439.778 280.222 439.333 280.667z"/>
<path style="fill:#7f7f7d; stroke:none;" d="M93 281C94.2484 281.685 94.5484 281.749 96 282C94.7517 281.315 94.4515 281.251 93 281z"/>
<path style="fill:#504f4b; stroke:none;" d="M96 281C97.7691 281.779 99.0359 281.912 101 282C99.231 281.221 97.9641 281.088 96 281z"/>
<path style="fill:#888783; stroke:none;" d="M101 281C102.248 281.685 102.548 281.749 104 282C102.752 281.315 102.452 281.251 101 281z"/>
<path style="fill:#b4b3af; stroke:none;" d="M364 281L365 282L364 281z"/>
<path style="fill:#61605b; stroke:none;" d="M365 281L366 282L365 281z"/>
<path style="fill:#403e3d; stroke:none;" d="M384 281L385 282L384 281z"/>
<path style="fill:#8e8f8a; stroke:none;" d="M385 281L386 282L385 281z"/>
<path style="fill:#c8c4c1; stroke:none;" d="M369 282L370 283L369 282z"/>
<path style="fill:#827d7a; stroke:none;" d="M370 282C371.248 282.685 371.548 282.749 373 283C371.752 282.315 371.452 282.251 370 282z"/>
<path style="fill:#5c5754; stroke:none;" d="M373 282C374.506 282.683 375.315 282.826 377 283C375.494 282.317 374.685 282.174 373 282z"/>
<path style="fill:#85817e; stroke:none;" d="M377 282C378.248 282.685 378.548 282.749 380 283C378.752 282.315 378.452 282.251 377 282z"/>
<path style="fill:#b4b0ad; stroke:none;" d="M380 282L381 283L380 282z"/>
<path style="fill:#777772; stroke:none;" d="M438 284L439 285L438 284z"/>
<path style="fill:#3e3e39; stroke:none;" d="M449 284L450 285L449 284z"/>
<path style="fill:#83827e; stroke:none;" d="M449 285L450 286L449 285z"/>
<path style="fill:#d5d5d0; stroke:none;" d="M449 286L450 287L449 286z"/>
<path style="fill:#7e7d7b; stroke:none;" d="M434 288L435 289L434 288z"/>
<path style="fill:#928e89; stroke:none;" d="M448 288L449 289L448 288z"/>
<path style="fill:#abaaa6; stroke:none;" d="M431 289L432 290L431 289z"/>
<path style="fill:#474745; stroke:none;" d="M432 289L433 290L432 289z"/>
<path style="fill:#484340; stroke:none;" d="M426 290C427.248 290.685 427.549 290.749 429 291C427.751 290.315 427.452 290.251 426 290z"/>
<path style="fill:#b4b3af; stroke:none;" d="M447 290L448 291L447 290z"/>
<path style="fill:#626260; stroke:none;" d="M446 291L447 292L446 291z"/>
<path style="fill:#494844; stroke:none;" d="M445 292L446 293L445 292z"/>
<path style="fill:#5a5a56; stroke:none;" d="M444 293L445 294L444 293z"/>
<path style="fill:#97948e; stroke:none;" d="M443 294L444 295L443 294z"/>
<path style="fill:#4f4e4a; stroke:none;" d="M441 295L442 296L441 295z"/>
<path style="fill:#4c4845; stroke:none;" d="M439 296L440 297L439 296z"/>
<path style="fill:#2d2c28; stroke:none;" d="M436 297L437 298L436 297z"/>
<path style="fill:#959590; stroke:none;" d="M437 297L438 298L437 297z"/>
<path style="fill:#4b4945; stroke:none;" d="M432 298L433 299L432 298z"/>
<path style="fill:#797973; stroke:none;" d="M433 298L434 299L433 298z"/>
<path style="fill:#c4bfbc; stroke:none;" d="M434 298L435 299L434 298z"/>
</svg>
