<?xml version="1.0" standalone="yes"?>
<svg xmlns="http://www.w3.org/2000/svg" width="500" height="500">
<path style="fill:#000000; stroke:none;" d="M0 0L0 500L500 500L500 0L0 0z"/>
<path style="fill:#a8a7a2; stroke:none;" d="M229 192L229 216C231.349 210.403 231.349 197.597 229 192z"/>
<path style="fill:#6c6b68; stroke:none;" d="M230 192L231 193L230 192z"/>
<path style="fill:#b6b6b3; stroke:none;" d="M313 192L314 193L313 192z"/>
<path style="fill:#676360; stroke:none;" d="M314 192L314 208C315.812 203.681 315.812 196.319 314 192z"/>
<path style="fill:#403c38; stroke:none;" d="M357 192L358 193L357 192z"/>
<path style="fill:#76726f; stroke:none;" d="M358 192L359 193L358 192z"/>
<path style="fill:#bbb7b4; stroke:none;" d="M359 192C360.248 192.685 360.548 192.749 362 193C360.752 192.315 360.452 192.251 359 192z"/>
<path style="fill:#eae5e2; stroke:none;" d="M362 192C363.506 192.683 364.315 192.826 366 193C364.494 192.317 363.685 192.174 362 192z"/>
<path style="fill:#cac6c2; stroke:none;" d="M366 192C367.248 192.685 367.548 192.749 369 193C367.752 192.315 367.452 192.251 366 192z"/>
<path style="fill:#9f9a97; stroke:none;" d="M369 192L370 193L369 192z"/>
<path style="fill:#736e6b; stroke:none;" d="M370 192L371 193L370 192z"/>
<path style="fill:#3e3936; stroke:none;" d="M371 192L372 193L371 192z"/>
<path style="fill:#fffaf4; stroke:none;" d="M230 193L231 279L313 279L313 227C313 217.559 314.196 207.222 312 198C309.053 199.073 305.812 199.455 302.996 200.851C296.54 204.051 290.749 209.562 285 213.873C281.613 216.414 276.453 222.058 272 222.208C267.832 222.349 263.111 217.207 260 214.873C250.353 207.638 240.798 198.378 230 193z"/>
<path style="fill:#b2aeaa; stroke:none;" d="M231 193L232 194L231 193z"/>
<path style="fill:#ffffff; stroke:none;" d="M305 200C307.668 199.666 309.59 199.184 312 198C313.818 207.794 313 218.068 313 228L313 279L231 279L231 200C228.097 206.919 230 217.52 230 225L230 280L314 280L314 193C310.191 194.613 307.516 196.721 305 200z"/>
<path style="fill:#36302c; stroke:none;" d="M352 193L353 194L352 193z"/>
<path style="fill:#7d7873; stroke:none;" d="M353 193L354 194L353 193z"/>
<path style="fill:#d1cbc7; stroke:none;" d="M354 193L355 194L354 193z"/>
<path style="fill:#fffaf4; stroke:none;" d="M355 193.465C327.706 198.385 312.271 229.894 322.876 255C331.35 275.064 352.857 285.494 374 281.532C405.077 275.709 418.883 237.517 401.895 212C391.673 196.646 372.792 190.257 355 193.465z"/>
<path style="fill:#c3bfbc; stroke:none;" d="M374 193L375 194L374 193z"/>
<path style="fill:#7f7b78; stroke:none;" d="M375 193L376 194L375 193z"/>
<path style="fill:#797977; stroke:none;" d="M415 193L416 194L415 193z"/>
<path style="fill:#999893; stroke:none;" d="M416 193C417.506 193.683 418.315 193.826 420 194C418.494 193.317 417.685 193.174 416 193z"/>
<path style="fill:#4c4b47; stroke:none;" d="M420 193L421 194L420 193z"/>
<path style="fill:#292824; stroke:none;" d="M46 194C53.1593 197.004 64.2562 195 72 195L131 195C123.841 191.996 112.744 194 105 194L46 194z"/>
<path style="fill:#585451; stroke:none;" d="M310 194L311 195L310 194z"/>
<path style="fill:#3d3c37; stroke:none;" d="M349 194L350 195L349 194z"/>
<path style="fill:#b0afab; stroke:none;" d="M350 194L351 195L350 194z"/>
<path style="fill:#aaa9a5; stroke:none;" d="M378 194L379 195L378 194z"/>
<path style="fill:#393834; stroke:none;" d="M379 194L380 195L379 194z"/>
<path style="fill:#b5b4b2; stroke:none;" d="M415 194L415 202C416.161 199.23 416.161 196.77 415 194z"/>
<path style="fill:#fffaf4; stroke:none;" d="M416 194L416 202C421.096 202.767 426.238 204.789 428.258 210.004C431.817 219.191 423.035 240.905 437.714 242.877C439.869 243.167 441.848 243.201 444 243C442.7 238.891 439.885 235.3 439.214 231C437.428 219.554 443.27 204.309 430.996 197.086C429.164 196.007 427.051 195.29 425 194.761C422.03 193.995 419.044 194.008 416 194z"/>
<path style="fill:#9d9c98; stroke:none;" d="M424 194L425 195L424 194z"/>
<path style="fill:#504f4b; stroke:none;" d="M425 194L426 195L425 194z"/>
<path style="fill:#5e5e59; stroke:none;" d="M45 195L45 240C46.552 236.301 46 231.983 46 228L46 208C46 203.74 46.6611 198.959 45 195z"/>
<path style="fill:#fffaf6; stroke:none;" d="M46 195C46 216.408 42.7605 239.911 51 260C51.9742 256.461 49.9699 252.741 50 249C47.2036 245.309 48 240.485 48 236L48 208L129 208C129 219.765 130.26 232.348 128.572 244C127.661 250.284 122.516 255.94 123 262C129.541 255.473 130 245.702 130 237L130 195L46 195z"/>
<path style="fill:#aaa5a2; stroke:none;" d="M130 195L130 240C131.552 236.301 131 231.983 131 228L131 208C131 203.74 131.661 198.959 130 195z"/>
<path style="fill:#b2afa9; stroke:none;" d="M137 195L137 280C139.395 274.293 138 266.154 138 260L138 217C138 210.314 139.599 201.194 137 195z"/>
<path style="fill:#ffffff; stroke:none;" d="M138 195L138 280C141.004 272.841 139 261.744 139 254L139 196C151.472 197.041 164.458 196 177 196C177 206.144 175.897 216.968 177 227C178.552 223.301 178 218.983 178 215L178 195L138 195z"/>
<path style="fill:#5a5a58; stroke:none;" d="M181 195L181 226C183.497 220.049 182 211.42 182 205C182 201.581 182.328 198.166 181 195z"/>
<path style="fill:#ffffff; stroke:none;" d="M182 195L182 227C185.511 218.633 183 205.076 183 196L221 196L221 254C221 262.161 218.945 272.158 221 280C224.004 272.841 222 261.744 222 254L222 195L182 195z"/>
<path style="fill:#545452; stroke:none;" d="M222 195L222 280C224.395 274.293 223 266.154 223 260L223 217C223 210.314 224.599 201.194 222 195z"/>
<path style="fill:#625e5b; stroke:none;" d="M234 195L235 196L234 195z"/>
<path style="fill:#9d9996; stroke:none;" d="M309 195L310 196L309 195z"/>
<path style="fill:#969591; stroke:none;" d="M347 195L348 196L347 195z"/>
<path style="fill:#939290; stroke:none;" d="M381 195L382 196L381 195z"/>
<path style="fill:#bbbab5; stroke:none;" d="M427 195L428 196L427 195z"/>
<path style="fill:#3e3d3b; stroke:none;" d="M428 195L429 196L428 195z"/>
<path style="fill:#fffaf4; stroke:none;" d="M139 196L139 280L178 280L178 248L182 248L182 280L221 280C219.931 270.889 221 261.186 221 252L221 196L183 196L183 227C180.558 226.89 178.377 226.572 176 226C178.698 216.873 177 205.497 177 196C164.361 196 151.623 196.493 139 196z"/>
<path style="fill:#aba6a3; stroke:none;" d="M235 196L236 197L235 196z"/>
<path style="fill:#b0b0ab; stroke:none;" d="M345 196L346 197L345 196z"/>
<path style="fill:#b3b2ad; stroke:none;" d="M383 196L384 197L383 196z"/>
<path style="fill:#57524f; stroke:none;" d="M430 196L431 197L430 196z"/>
<path style="fill:#4d4c48; stroke:none;" d="M306 197L307 198L306 197z"/>
<path style="fill:#c4c3bf; stroke:none;" d="M343 197L344 198L343 197z"/>
<path style="fill:#b9b8b4; stroke:none;" d="M385 197L386 198L385 197z"/>
<path style="fill:#fffaf4; stroke:none;" d="M128 198C119.72 200.448 109.607 199 101 199L48 199L48 206L128 206C128.353 203.161 128.969 200.698 128 198z"/>
<path style="fill:#56514e; stroke:none;" d="M238 198L239 199L238 198z"/>
<path style="fill:#908f8b; stroke:none;" d="M305 198L306 199L305 198z"/>
<path style="fill:#928e8a; stroke:none;" d="M341 198L342 199L341 198z"/>
<path style="fill:#87847e; stroke:none;" d="M387 198L388 199L387 198z"/>
<path style="fill:#595451; stroke:none;" d="M433 198L434 199L433 198z"/>
<path style="fill:#a8a3a0; stroke:none;" d="M239 199L240 200L239 199z"/>
<path style="fill:#d7d6d2; stroke:none;" d="M304 199L305 200L304 199z"/>
<path style="fill:#5c5854; stroke:none;" d="M339 199L340 200L339 199z"/>
<path style="fill:#4b4744; stroke:none;" d="M389 199L390 200L389 199z"/>
<path style="fill:#848482; stroke:none;" d="M434 199L435 200L434 199z"/>
<path style="fill:#454140; stroke:none;" d="M302 200L303 201L302 200z"/>
<path style="fill:#afaaa7; stroke:none;" d="M338 200L339 201L338 200z"/>
<path style="fill:#a7a3a0; stroke:none;" d="M390 200L391 201L390 200z"/>
<path style="fill:#7f7a77; stroke:none;" d="M435 200L436 201L435 200z"/>
<path style="fill:#4f4e4a; stroke:none;" d="M242 201L243 202L242 201z"/>
<path style="fill:#938f8c; stroke:none;" d="M301 201L302 202L301 201z"/>
<path style="fill:#363231; stroke:none;" d="M436 201L437 202L436 201z"/>
<path style="fill:#989390; stroke:none;" d="M243 202L244 203L243 202z"/>
<path style="fill:#d7d3d0; stroke:none;" d="M300 202L301 203L300 202z"/>
<path style="fill:#605c59; stroke:none;" d="M335 202L336 203L335 202z"/>
<path style="fill:#4e4d48; stroke:none;" d="M393 202L394 203L393 202z"/>
<path style="fill:#41403c; stroke:none;" d="M416 202C417.248 202.685 417.549 202.749 419 203C417.752 202.315 417.452 202.251 416 202z"/>
<path style="fill:#989893; stroke:none;" d="M419 202L420 203L419 202z"/>
<path style="fill:#d1d1cd; stroke:none;" d="M244 203L245 204L244 203z"/>
<path style="fill:#44403c; stroke:none;" d="M298 203L299 204L298 203z"/>
<path style="fill:#837f7b; stroke:none;" d="M334 203L335 204L334 203z"/>
<path style="fill:#676662; stroke:none;" d="M394 203L395 204L394 203z"/>
<path style="fill:#6c6865; stroke:none;" d="M422 203L423 204L422 203z"/>
<path style="fill:#84807c; stroke:none;" d="M437 203L438 204L437 203z"/>
<path style="fill:#45443f; stroke:none;" d="M246 204L247 205L246 204z"/>
<path style="fill:#817c79; stroke:none;" d="M297 204L298 205L297 204z"/>
<path style="fill:#999592; stroke:none;" d="M333 204L334 205L333 204z"/>
<path style="fill:#83827d; stroke:none;" d="M395 204L396 205L395 204z"/>
<path style="fill:#67645f; stroke:none;" d="M424 204L425 205L424 204z"/>
<path style="fill:#91908c; stroke:none;" d="M247 205L248 206L247 205z"/>
<path style="fill:#c2bebb; stroke:none;" d="M296 205L297 206L296 205z"/>
<path style="fill:#ada9a6; stroke:none;" d="M332 205L333 206L332 205z"/>
<path style="fill:#959492; stroke:none;" d="M396 205L397 206L396 205z"/>
<path style="fill:#4b4743; stroke:none;" d="M438 205L439 206L438 205z"/>
<path style="fill:#d3d3ce; stroke:none;" d="M248 206L249 207L248 206z"/>
<path style="fill:#3b3633; stroke:none;" d="M294 206L295 207L294 206z"/>
<path style="fill:#999591; stroke:none;" d="M331 206L332 207L331 206z"/>
<path style="fill:#888480; stroke:none;" d="M397 206L398 207L397 206z"/>
<path style="fill:#b3afac; stroke:none;" d="M438 206L439 207L438 206z"/>
<path style="fill:#413c39; stroke:none;" d="M250 207L251 208L250 207z"/>
<path style="fill:#7c7874; stroke:none;" d="M293 207L294 208L293 207z"/>
<path style="fill:#7d7976; stroke:none;" d="M330 207L331 208L330 207z"/>
<path style="fill:#64605c; stroke:none;" d="M398 207L399 208L398 207z"/>
<path style="fill:#908c87; stroke:none;" d="M427 207L428 208L427 207z"/>
<path style="fill:#fffaf4; stroke:none;" d="M48 208L48 238C48 241.707 47.0452 246.418 50 249C48.9511 256.726 53.6357 264.741 59.0147 269.957C72.4052 282.941 95.3419 285.135 111 274.899C132.961 260.543 129 230.819 129 208L48 208z"/>
<path style="fill:#888380; stroke:none;" d="M251 208L252 209L251 208z"/>
<path style="fill:#c7c2c0; stroke:none;" d="M292 208L293 209L292 208z"/>
<path style="fill:#72726e; stroke:none;" d="M314 208L314 228C316.087 223.027 316.087 212.973 314 208z"/>
<path style="fill:#69635f; stroke:none;" d="M329 208L330 209L329 208z"/>
<path style="fill:#504d47; stroke:none;" d="M399 208L400 209L399 208z"/>
<path style="fill:#cfcbc7; stroke:none;" d="M252 209L253 210L252 209z"/>
<path style="fill:#35322c; stroke:none;" d="M290 209L291 210L290 209z"/>
<path style="fill:#c9c5c2; stroke:none;" d="M428 209L429 210L428 209z"/>
<path style="fill:#777370; stroke:none;" d="M439 209L439 232C441.284 226.557 441.284 214.443 439 209z"/>
<path style="fill:#312d2a; stroke:none;" d="M254 210L255 211L254 210z"/>
<path style="fill:#726f69; stroke:none;" d="M289 210L290 211L289 210z"/>
<path style="fill:#7f7a78; stroke:none;" d="M428 210L429 211L428 210z"/>
<path style="fill:#817c79; stroke:none;" d="M255 211L256 212L255 211z"/>
<path style="fill:#bab6b3; stroke:none;" d="M288 211L289 212L288 211z"/>
<path style="fill:#aaa6a3; stroke:none;" d="M327 211L328 212L327 211z"/>
<path style="fill:#9e9d99; stroke:none;" d="M401 211L402 212L401 211z"/>
<path style="fill:#3f3a37; stroke:none;" d="M428.333 211.667C428.278 211.722 428.222 212.778 428.667 212.333C428.722 212.278 428.778 211.222 428.333 211.667z"/>
<path style="fill:#c7c7c2; stroke:none;" d="M256 212L257 213L256 212z"/>
<path style="fill:#5a5552; stroke:none;" d="M326 212L327 213L326 212z"/>
<path style="fill:#44433e; stroke:none;" d="M402 212L403 213L402 212z"/>
<path style="fill:#33322d; stroke:none;" d="M258 213L259 214L258 213z"/>
<path style="fill:#666560; stroke:none;" d="M285 213L286 214L285 213z"/>
<path style="fill:#231f1c; stroke:none;" d="M428 213L428 232C430.02 227.187 430.02 217.813 428 213z"/>
<path style="fill:#75706d; stroke:none;" d="M259 214L260 215L259 214z"/>
<path style="fill:#b0aca9; stroke:none;" d="M284 214L285 215L284 214z"/>
<path style="fill:#8e8d89; stroke:none;" d="M325 214L326 215L325 214z"/>
<path style="fill:#8b8784; stroke:none;" d="M403 214L404 215L403 214z"/>
<path style="fill:#c1bdba; stroke:none;" d="M260 215L261 216L260 215z"/>
<path style="fill:#92918b; stroke:none;" d="M229 216L229 232C230.812 227.681 230.812 220.319 229 216z"/>
<path style="fill:#5d5955; stroke:none;" d="M281 216L282 217L281 216z"/>
<path style="fill:#bdb8b5; stroke:none;" d="M324 216L325 217L324 216z"/>
<path style="fill:#a8a7a3; stroke:none;" d="M404 216L405 217L404 216z"/>
<path style="fill:#6d6966; stroke:none;" d="M263 217L264 218L263 217z"/>
<path style="fill:#a6a29f; stroke:none;" d="M280 217L281 218L280 217z"/>
<path style="fill:#b2adaa; stroke:none;" d="M264 218L265 219L264 218z"/>
<path style="fill:#b7b6b2; stroke:none;" d="M323 218L324 219L323 218z"/>
<path style="fill:#9a9a95; stroke:none;" d="M405 218L406 219L405 218z"/>
<path style="fill:#5b5a56; stroke:none;" d="M277 219L278 220L277 219z"/>
<path style="fill:#5e5d59; stroke:none;" d="M267 220L268 221L267 220z"/>
<path style="fill:#a6a19e; stroke:none;" d="M276 220L277 221L276 220z"/>
<path style="fill:#8d8985; stroke:none;" d="M322 220L323 221L322 220z"/>
<path style="fill:#757470; stroke:none;" d="M406 220L407 221L406 220z"/>
<path style="fill:#b0afab; stroke:none;" d="M268 221L269 222L268 221z"/>
<path style="fill:#514d48; stroke:none;" d="M273 222L274 223L273 222z"/>
<path style="fill:#393934; stroke:none;" d="M321 222L322 223L321 222z"/>
<path style="fill:#56534d; stroke:none;" d="M271 223L272 224L271 223z"/>
<path style="fill:#9a9792; stroke:none;" d="M272 223L273 224L272 223z"/>
<path style="fill:#a9a6a0; stroke:none;" d="M321 223L322 224L321 223z"/>
<path style="fill:#94938f; stroke:none;" d="M407 223L408 224L407 223z"/>
<path style="fill:#dad5cf; stroke:none;" d="M178 226C179.506 226.683 180.315 226.826 182 227C180.494 226.317 179.685 226.174 178 226z"/>
<path style="fill:#797671; stroke:none;" d="M320 226L321 227L320 226z"/>
<path style="fill:#56524f; stroke:none;" d="M408 226L409 227L408 226z"/>
<path style="fill:#c4c1bc; stroke:none;" d="M320 227L321 228L320 227z"/>
<path style="fill:#b1adaa; stroke:none;" d="M408 227L409 228L408 227z"/>
<path style="fill:#817d7a; stroke:none;" d="M314 228L314 244C315.812 239.681 315.812 232.319 314 228z"/>
<path style="fill:#adaaa4; stroke:none;" d="M361 229L362 230L361 229z"/>
<path style="fill:#4f4e4a; stroke:none;" d="M362.667 229.333C362.222 229.778 363.278 229.722 363.333 229.667C363.778 229.222 362.722 229.278 362.667 229.333z"/>
<path style="fill:#8a8a85; stroke:none;" d="M364 229L365 230L364 229z"/>
<path style="fill:#343331; stroke:none;" d="M319 230L320 231L319 230z"/>
<path style="fill:#302f2b; stroke:none;" d="M360 230L361 231L360 230z"/>
<path style="fill:#000000; stroke:none;" d="M361.231 230.762C356.24 232.883 360.228 239.911 364.856 238.338C370.348 236.471 366.531 228.509 361.231 230.762z"/>
<path style="fill:#555553; stroke:none;" d="M366 230L367 231L366 230z"/>
<path style="fill:#636261; stroke:none;" d="M319 231L320 232L319 231z"/>
<path style="fill:#5b5a58; stroke:none;" d="M367 231L368 232L367 231z"/>
<path style="fill:#4b4744; stroke:none;" d="M409 231L410 232L409 231z"/>
<path style="fill:#85847f; stroke:none;" d="M229 232L229 248C230.812 243.681 230.812 236.319 229 232z"/>
<path style="fill:#a6a5a3; stroke:none;" d="M319.333 232.667C319.278 232.722 319.222 233.778 319.667 233.333C319.722 233.278 319.778 232.222 319.333 232.667z"/>
<path style="fill:#827e7b; stroke:none;" d="M358 232L359 233L358 232z"/>
<path style="fill:#d5d2cd; stroke:none;" d="M368 232L369 233L368 232z"/>
<path style="fill:#95918e; stroke:none;" d="M409.333 232.667C409.278 232.722 409.222 233.778 409.667 233.333C409.722 233.278 409.778 232.222 409.333 232.667z"/>
<path style="fill:#a6a39d; stroke:none;" d="M439 232L440 233L439 232z"/>
<path style="fill:#87837e; stroke:none;" d="M368 233L369 234L368 233z"/>
<path style="fill:#d8d5cf; stroke:none;" d="M439 233L440 234L439 233z"/>
<path style="fill:#dbdad8; stroke:none;" d="M319 234L319 239C319.83 236.97 319.83 236.03 319 234z"/>
<path style="fill:#57544f; stroke:none;" d="M368 234L369 235L368 234z"/>
<path style="fill:#c9c4c1; stroke:none;" d="M409 234L409 239C409.83 236.97 409.83 236.03 409 234z"/>
<path style="fill:#393532; stroke:none;" d="M358 235L359 236L358 235z"/>
<path style="fill:#8f8b86; stroke:none;" d="M368 235L369 236L368 235z"/>
<path style="fill:#bab7b2; stroke:none;" d="M429 235L430 236L429 235z"/>
<path style="fill:#595854; stroke:none;" d="M440 235L441 236L440 235z"/>
<path style="fill:#9f9b98; stroke:none;" d="M358 236L359 237L358 236z"/>
<path style="fill:#67645e; stroke:none;" d="M429 236L430 237L429 236z"/>
<path style="fill:#45413e; stroke:none;" d="M359 237L360 238L359 237z"/>
<path style="fill:#97928f; stroke:none;" d="M367 237L368 238L367 237z"/>
<path style="fill:#8c8b86; stroke:none;" d="M441 237L442 238L441 237z"/>
<path style="fill:#837f7c; stroke:none;" d="M360 238L361 239L360 238z"/>
<path style="fill:#c2bebd; stroke:none;" d="M366 238L367 239L366 238z"/>
<path style="fill:#a4a199; stroke:none;" d="M430 238L431 239L430 238z"/>
<path style="fill:#8b8a88; stroke:none;" d="M442 238L443 239L442 238z"/>
<path style="fill:#b3b2b0; stroke:none;" d="M319 239L319 243C319.71 241.24 319.71 240.759 319 239z"/>
<path style="fill:#b5b2ad; stroke:none;" d="M363 239L364 240L363 239z"/>
<path style="fill:#a7a29f; stroke:none;" d="M409 239L409 242C409.696 240.446 409.696 240.554 409 239z"/>
<path style="fill:#c0c0bc; stroke:none;" d="M443 239L444 240L443 239z"/>
<path style="fill:#3f3f3a; stroke:none;" d="M45 240L45 243C45.6961 241.446 45.6961 241.554 45 240z"/>
<path style="fill:#837f7c; stroke:none;" d="M130 240L130 244C130.71 242.24 130.71 241.759 130 240z"/>
<path style="fill:#43423e; stroke:none;" d="M431 240L432 241L431 240z"/>
<path style="fill:#fffbf5; stroke:none;" d="M443 240L444 243L436 243C438.042 244.416 439.511 244.745 442 245C438.382 248.27 433.152 249.471 430.769 254.093C426.189 262.974 431.734 274.013 427.991 282.985C425.682 288.518 420.117 287.741 417.028 291.727C415.557 293.624 416.008 296.762 416 299C424.446 298.636 433.91 296.517 437.633 287.996C442.376 277.14 433.03 259.069 446.005 252.303C448.459 251.024 451.319 250.555 454 250L454 242C450.248 241.694 446.68 240.759 443 240z"/>
<path style="fill:#b9b6b0; stroke:none;" d="M445 240L446 241L445 240z"/>
<path style="fill:#5c5954; stroke:none;" d="M446 240L447 241L446 240z"/>
<path style="fill:#777672; stroke:none;" d="M432 241L433 242L432 241z"/>
<path style="fill:#b1b1ab; stroke:none;" d="M449 241L450 242L449 241z"/>
<path style="fill:#51504e; stroke:none;" d="M450 241C451.506 241.683 452.315 241.826 454 242C452.494 241.317 451.685 241.174 450 241z"/>
<path style="fill:#797670; stroke:none;" d="M409 242L410 243L409 242z"/>
<path style="fill:#50514b; stroke:none;" d="M433 242L434 243L433 242z"/>
<path style="fill:#393534; stroke:none;" d="M454 242L454 251C455.256 248.006 455.256 244.994 454 242z"/>
<path style="fill:#5d5d5b; stroke:none;" d="M319 243L320 244L319 243z"/>
<path style="fill:#a9a6a0; stroke:none;" d="M362.667 243.333C362.222 243.778 363.278 243.722 363.333 243.667C363.778 243.222 362.722 243.278 362.667 243.333z"/>
<path style="fill:#d8d2ce; stroke:none;" d="M364 243L365 244L364 243z"/>
<path style="fill:#47423f; stroke:none;" d="M409 243L410 244L409 243z"/>
<path style="fill:#c2c1bd; stroke:none;" d="M435 243L436 244L435 243z"/>
<path style="fill:#36322f; stroke:none;" d="M130 244L131 245L130 244z"/>
<path style="fill:#92918d; stroke:none;" d="M314 244L314 272C316.604 265.793 316.604 250.207 314 244z"/>
<path style="fill:#7e7a77; stroke:none;" d="M360 244L361 245L360 244z"/>
<path style="fill:#000000; stroke:none;" d="M362 257C363.657 255.765 365.149 254.734 366.282 252.941C371.515 244.655 359.016 241.542 358.863 248.98C358.807 251.667 361.28 254.414 362 257z"/>
<path style="fill:#bfbbba; stroke:none;" d="M366 244L367 245L366 244z"/>
<path style="fill:#353130; stroke:none;" d="M436 244L437 245L436 244z"/>
<path style="fill:#b3afac; stroke:none;" d="M437 244L438 245L437 244z"/>
<path style="fill:#4a4742; stroke:none;" d="M359 245L360 246L359 245z"/>
<path style="fill:#a0a09e; stroke:none;" d="M367 245L368 246L367 245z"/>
<path style="fill:#534e4b; stroke:none;" d="M439 245L440 246L439 245z"/>
<path style="fill:#9f9a95; stroke:none;" d="M440 245L441 246L440 245z"/>
<path style="fill:#d0cbc7; stroke:none;" d="M441 245L442 246L441 245z"/>
<path style="fill:#989792; stroke:none;" d="M46.3333 246.667C46.2777 246.722 46.2223 247.778 46.6667 247.333C46.7222 247.278 46.7778 246.222 46.3333 246.667z"/>
<path style="fill:#ada9a6; stroke:none;" d="M358 246L359 247L358 246z"/>
<path style="fill:#b5b1ae; stroke:none;" d="M320 247L321 248L320 247z"/>
<path style="fill:#433f3c; stroke:none;" d="M358 247L359 248L358 247z"/>
<path style="fill:#9a9792; stroke:none;" d="M368 247L369 248L368 247z"/>
<path style="fill:#a3a29d; stroke:none;" d="M408 247L409 248L408 247z"/>
<path style="fill:#847e7b; stroke:none;" d="M438 247L439 248L438 247z"/>
<path style="fill:#51504e; stroke:none;" d="M46 248L47 249L46 248z"/>
<path style="fill:#96958f; stroke:none;" d="M129 248L130 249L129 248z"/>
<path style="fill:#a4a19c; stroke:none;" d="M178 248C179.506 248.683 180.315 248.826 182 249C180.494 248.317 179.685 248.174 178 248z"/>
<path style="fill:#777771; stroke:none;" d="M229 248L229 272C231.349 266.403 231.349 253.597 229 248z"/>
<path style="fill:#625e5a; stroke:none;" d="M320 248L321 249L320 248z"/>
<path style="fill:#77736e; stroke:none;" d="M368.333 248.667C368.278 248.722 368.222 249.778 368.667 249.333C368.722 249.278 368.778 248.222 368.333 248.667z"/>
<path style="fill:#4e4d4b; stroke:none;" d="M408 248L409 249L408 248z"/>
<path style="fill:#beb9b6; stroke:none;" d="M436 248L437 249L436 248z"/>
<path style="fill:#494842; stroke:none;" d="M129 249L130 250L129 249z"/>
<path style="fill:#5a5a58; stroke:none;" d="M181 249L181 280C183.497 274.049 182 265.42 182 259C182 255.581 182.328 252.166 181 249z"/>
<path style="fill:#959490; stroke:none;" d="M434 249L435 250L434 249z"/>
<path style="fill:#787471; stroke:none;" d="M358 250L359 251L358 250z"/>
<path style="fill:#c9c6c0; stroke:none;" d="M368 250L369 251L368 250z"/>
<path style="fill:#d8d4cf; stroke:none;" d="M433 250L434 251L433 250z"/>
<path style="fill:#d9d4d1; stroke:none;" d="M451 250C452.248 250.685 452.548 250.749 454 251C452.752 250.315 452.452 250.251 451 250z"/>
<path style="fill:#969591; stroke:none;" d="M47 251L48 252L47 251z"/>
<path style="fill:#9a9791; stroke:none;" d="M321 251L322 252L321 251z"/>
<path style="fill:#454543; stroke:none;" d="M367 251L368 252L367 251z"/>
<path style="fill:#817c79; stroke:none;" d="M407 251L408 252L407 251z"/>
<path style="fill:#928f8a; stroke:none;" d="M447 251L448 252L447 251z"/>
<path style="fill:#43403a; stroke:none;" d="M448 251L449 252L448 251z"/>
<path style="fill:#75746f; stroke:none;" d="M128 252L129 253L128 252z"/>
<path style="fill:#a3a2a0; stroke:none;" d="M431 252L432 253L431 252z"/>
<path style="fill:#bab7b2; stroke:none;" d="M444 252L445 253L444 252z"/>
<path style="fill:#9a9995; stroke:none;" d="M361 253L362 254L361 253z"/>
<path style="fill:#d5d5d3; stroke:none;" d="M406 253L407 254L406 253z"/>
<path style="fill:#4b4b4b; stroke:none;" d="M430 253L431 254L430 253z"/>
<path style="fill:#85827c; stroke:none;" d="M48 254L49 255L48 254z"/>
<path style="fill:#c6c2bb; stroke:none;" d="M127 254L128 255L127 254z"/>
<path style="fill:#777672; stroke:none;" d="M322 254L323 255L322 254z"/>
<path style="fill:#d0cfca; stroke:none;" d="M365 254L366 255L365 254z"/>
<path style="fill:#666563; stroke:none;" d="M406 254L407 255L406 254z"/>
<path style="fill:#615e59; stroke:none;" d="M127 255L128 256L127 255z"/>
<path style="fill:#918d88; stroke:none;" d="M364 255L365 256L364 255z"/>
<path style="fill:#2d2d2b; stroke:none;" d="M429 255L430 256L429 255z"/>
<path style="fill:#beb9b6; stroke:none;" d="M49 256L50 257L49 256z"/>
<path style="fill:#93928e; stroke:none;" d="M323 256L324 257L323 256z"/>
<path style="fill:#66615a; stroke:none;" d="M363 256L364 257L363 256z"/>
<path style="fill:#87837f; stroke:none;" d="M405 256L406 257L405 256z"/>
<path style="fill:#94948f; stroke:none;" d="M429 256L430 257L429 256z"/>
<path style="fill:#918d8c; stroke:none;" d="M440 256L441 257L440 256z"/>
<path style="fill:#696965; stroke:none;" d="M126 257L127 258L126 257z"/>
<path style="fill:#c0bbb5; stroke:none;" d="M362 257L363 258L362 257z"/>
<path style="fill:#d0cdc7; stroke:none;" d="M429 257L430 258L429 257z"/>
<path style="fill:#c3bfbb; stroke:none;" d="M50 258L51 259L50 258z"/>
<path style="fill:#a19d9a; stroke:none;" d="M324 258L325 259L324 258z"/>
<path style="fill:#90908b; stroke:none;" d="M404 258L405 259L404 258z"/>
<path style="fill:#3d3935; stroke:none;" d="M50 259L51 260L50 259z"/>
<path style="fill:#6f6b68; stroke:none;" d="M125 259L126 260L125 259z"/>
<path style="fill:#9a9692; stroke:none;" d="M439.333 259.667C439.278 259.722 439.222 260.778 439.667 260.333C439.722 260.278 439.778 259.222 439.333 259.667z"/>
<path style="fill:#b1b1ad; stroke:none;" d="M51 260L52 261L51 260z"/>
<path style="fill:#6d6c68; stroke:none;" d="M325 260L326 261L325 260z"/>
<path style="fill:#595853; stroke:none;" d="M403 260L404 261L403 260z"/>
<path style="fill:#3f3e3a; stroke:none;" d="M124 261L125 262L124 261z"/>
<path style="fill:#282320; stroke:none;" d="M428 261L428 280C430.02 275.187 430.02 265.813 428 261z"/>
<path style="fill:#777370; stroke:none;" d="M439 261L439 282C441.153 276.869 441.153 266.131 439 261z"/>
<path style="fill:#6d6d68; stroke:none;" d="M52 262L53 263L52 262z"/>
<path style="fill:#a7a6a2; stroke:none;" d="M123 262L124 263L123 262z"/>
<path style="fill:#3d3935; stroke:none;" d="M326 262L327 263L326 262z"/>
<path style="fill:#cdccc8; stroke:none;" d="M53 263L54 264L53 263z"/>
<path style="fill:#908b88; stroke:none;" d="M327 263L328 264L327 263z"/>
<path style="fill:#6b6a65; stroke:none;" d="M401 263L402 264L401 263z"/>
<path style="fill:#3a3937; stroke:none;" d="M122 264L123 265L122 264z"/>
<path style="fill:#d1d0cc; stroke:none;" d="M328 264L329 265L328 264z"/>
<path style="fill:#bcbbb7; stroke:none;" d="M400 264L401 265L400 264z"/>
<path style="fill:#3c3b39; stroke:none;" d="M54 265L55 266L54 265z"/>
<path style="fill:#73726d; stroke:none;" d="M121 265L122 266L121 265z"/>
<path style="fill:#71736d; stroke:none;" d="M55 266L56 267L55 266z"/>
<path style="fill:#afaeac; stroke:none;" d="M120 266L121 267L120 266z"/>
<path style="fill:#373632; stroke:none;" d="M329 266L330 267L329 266z"/>
<path style="fill:#8e8d89; stroke:none;" d="M56 267L57 268L56 267z"/>
<path style="fill:#c4c3be; stroke:none;" d="M119 267L120 268L119 267z"/>
<path style="fill:#534e4b; stroke:none;" d="M330 267L331 268L330 267z"/>
<path style="fill:#363530; stroke:none;" d="M398 267L399 268L398 267z"/>
<path style="fill:#a9a8a4; stroke:none;" d="M57 268L58 269L57 268z"/>
<path style="fill:#666561; stroke:none;" d="M331 268L332 269L331 268z"/>
<path style="fill:#5b5a55; stroke:none;" d="M397 268L398 269L397 268z"/>
<path style="fill:#b6b2ad; stroke:none;" d="M58 269L59 270L58 269z"/>
<path style="fill:#7f7b78; stroke:none;" d="M332 269L333 270L332 269z"/>
<path style="fill:#676662; stroke:none;" d="M396 269L397 270L396 269z"/>
<path style="fill:#9c9893; stroke:none;" d="M59 270L60 271L59 270z"/>
<path style="fill:#d3d0cb; stroke:none;" d="M116 270L117 271L116 270z"/>
<path style="fill:#605c59; stroke:none;" d="M333 270L334 271L333 270z"/>
<path style="fill:#5c5b55; stroke:none;" d="M395 270L396 271L395 270z"/>
<path style="fill:#83807a; stroke:none;" d="M60 271L61 272L60 271z"/>
<path style="fill:#bebbb5; stroke:none;" d="M115 271L116 272L115 271z"/>
<path style="fill:#4e4a47; stroke:none;" d="M334 271L335 272L334 271z"/>
<path style="fill:#44433f; stroke:none;" d="M394 271L395 272L394 271z"/>
<path style="fill:#535251; stroke:none;" d="M61 272L62 273L61 272z"/>
<path style="fill:#82817f; stroke:none;" d="M114 272L115 273L114 272z"/>
<path style="fill:#6a6965; stroke:none;" d="M229 272L229 280C230.161 277.23 230.161 274.77 229 272z"/>
<path style="fill:#a09f9a; stroke:none;" d="M314 272L314 280C315.161 277.23 315.161 274.77 314 272z"/>
<path style="fill:#383836; stroke:none;" d="M335 272L336 273L335 272z"/>
<path style="fill:#31302e; stroke:none;" d="M393 272L394 273L393 272z"/>
<path style="fill:#3c3d3d; stroke:none;" d="M113 273L114 274L113 273z"/>
<path style="fill:#cac7c2; stroke:none;" d="M337 273L338 274L337 273z"/>
<path style="fill:#bfbab7; stroke:none;" d="M391 273L392 274L391 273z"/>
<path style="fill:#8a8583; stroke:none;" d="M64 274L65 275L64 274z"/>
<path style="fill:#bebdb9; stroke:none;" d="M111 274L112 275L111 274z"/>
<path style="fill:#8c8984; stroke:none;" d="M338 274L339 275L338 274z"/>
<path style="fill:#70706b; stroke:none;" d="M390 274L391 275L390 274z"/>
<path style="fill:#d6d1ce; stroke:none;" d="M66 275L67 276L66 275z"/>
<path style="fill:#4c4845; stroke:none;" d="M110 275L111 276L110 275z"/>
<path style="fill:#d3cecb; stroke:none;" d="M388 275L389 276L388 275z"/>
<path style="fill:#656560; stroke:none;" d="M67 276L68 277L67 276z"/>
<path style="fill:#898481; stroke:none;" d="M108 276L109 277L108 276z"/>
<path style="fill:#6c6b67; stroke:none;" d="M341 276L342 277L341 276z"/>
<path style="fill:#565550; stroke:none;" d="M387 276L388 277L387 276z"/>
<path style="fill:#6a6964; stroke:none;" d="M69 277L70 278L69 277z"/>
<path style="fill:#837e7b; stroke:none;" d="M106 277L107 278L106 277z"/>
<path style="fill:#928e8b; stroke:none;" d="M343 277L344 278L343 277z"/>
<path style="fill:#8b8a88; stroke:none;" d="M385 277L386 278L385 277z"/>
<path style="fill:#54544f; stroke:none;" d="M71 278L72 279L71 278z"/>
<path style="fill:#d0cfcb; stroke:none;" d="M72 278L73 279L72 278z"/>
<path style="fill:#6c6c6a; stroke:none;" d="M104 278L105 279L104 278z"/>
<path style="fill:#858580; stroke:none;" d="M345 278L346 279L345 278z"/>
<path style="fill:#837f7e; stroke:none;" d="M383 278L384 279L383 278z"/>
<path style="fill:#777671; stroke:none;" d="M74 279L75 280L74 279z"/>
<path style="fill:#96928e; stroke:none;" d="M101 279L102 280L101 279z"/>
<path style="fill:#5c5b57; stroke:none;" d="M347 279L348 280L347 279z"/>
<path style="fill:#d6d5d0; stroke:none;" d="M348 279L349 280L348 279z"/>
<path style="fill:#d0ccc8; stroke:none;" d="M380 279L381 280L380 279z"/>
<path style="fill:#5b5753; stroke:none;" d="M381 279L382 280L381 279z"/>
<path style="fill:#4b4d47; stroke:none;" d="M77 280L78 281L77 280z"/>
<path style="fill:#aba9a5; stroke:none;" d="M78 280L79 281L78 280z"/>
<path style="fill:#bfbeb9; stroke:none;" d="M97 280L98 281L97 280z"/>
<path style="fill:#65645f; stroke:none;" d="M98 280L99 281L98 280z"/>
<path style="fill:#7d7c7a; stroke:none;" d="M350 280L351 281L350 280z"/>
<path style="fill:#7a7a78; stroke:none;" d="M378 280L379 281L378 280z"/>
<path style="fill:#64615b; stroke:none;" d="M428.333 280.667C428.278 280.722 428.222 281.778 428.667 281.333C428.722 281.278 428.778 280.222 428.333 280.667z"/>
<path style="fill:#55514d; stroke:none;" d="M82 281L83 282L82 281z"/>
<path style="fill:#989490; stroke:none;" d="M83 281C84.2484 281.685 84.5483 281.749 86 282C84.7517 281.315 84.4515 281.251 83 281z"/>
<path style="fill:#c7c2bf; stroke:none;" d="M86 281C87.5061 281.683 88.3148 281.826 90 282C88.494 281.317 87.6852 281.174 86 281z"/>
<path style="fill:#9d9995; stroke:none;" d="M90 281C91.2484 281.685 91.5483 281.749 93 282C91.7517 281.315 91.4515 281.251 90 281z"/>
<path style="fill:#5f5a57; stroke:none;" d="M93 281L94 282L93 281z"/>
<path style="fill:#423f39; stroke:none;" d="M353 281L354 282L353 281z"/>
<path style="fill:#a39f9a; stroke:none;" d="M354 281L355 282L354 281z"/>
<path style="fill:#96928f; stroke:none;" d="M374 281L375 282L374 281z"/>
<path style="fill:#534e4b; stroke:none;" d="M375 281L376 282L375 281z"/>
<path style="fill:#6b6a66; stroke:none;" d="M358.667 282.333C358.222 282.778 359.278 282.722 359.333 282.667C359.778 282.222 358.722 282.278 358.667 282.333z"/>
<path style="fill:#989793; stroke:none;" d="M360.667 282.333C360.222 282.778 361.278 282.722 361.333 282.667C361.778 282.222 360.722 282.278 360.667 282.333z"/>
<path style="fill:#b7b7b2; stroke:none;" d="M362 282C363.506 282.683 364.315 282.826 366 283C364.494 282.317 363.685 282.174 362 282z"/>
<path style="fill:#9b9a96; stroke:none;" d="M366 282C367.506 282.683 368.315 282.826 370 283C368.494 282.317 367.685 282.174 366 282z"/>
<path style="fill:#3d3c38; stroke:none;" d="M370 282L371 283L370 282z"/>
<path style="fill:#aba8a3; stroke:none;" d="M428 282L429 283L428 282z"/>
<path style="fill:#4d4845; stroke:none;" d="M439 282L440 283L439 282z"/>
<path style="fill:#43423e; stroke:none;" d="M427 284L428 285L427 284z"/>
<path style="fill:#a6a5a1; stroke:none;" d="M426 286L427 287L426 286z"/>
<path style="fill:#7d7976; stroke:none;" d="M438 286L439 287L438 286z"/>
<path style="fill:#b9b8b4; stroke:none;" d="M425 287L426 288L425 287z"/>
<path style="fill:#6f6a67; stroke:none;" d="M423 288L424 289L423 288z"/>
<path style="fill:#ccc7c4; stroke:none;" d="M437 288L438 289L437 288z"/>
<path style="fill:#4c4744; stroke:none;" d="M420 289L421 290L420 289z"/>
<path style="fill:#ada8a5; stroke:none;" d="M421 289L422 290L421 289z"/>
<path style="fill:#2f2a2a; stroke:none;" d="M437 289L438 290L437 289z"/>
<path style="fill:#757676; stroke:none;" d="M415 290L416 291L415 290z"/>
<path style="fill:#ded9d6; stroke:none;" d="M416.667 290.333C416.222 290.778 417.278 290.722 417.333 290.667C417.778 290.222 416.722 290.278 416.667 290.333z"/>
<path style="fill:#9e9d98; stroke:none;" d="M436 290L437 291L436 290z"/>
<path style="fill:#b3b3b1; stroke:none;" d="M415 291L415 299C416.161 296.23 416.161 293.77 415 291z"/>
<path style="fill:#a9a5a2; stroke:none;" d="M432 294L433 295L432 294z"/>
<path style="fill:#45403d; stroke:none;" d="M431 295L432 296L431 295z"/>
<path style="fill:#5b5a55; stroke:none;" d="M429 296L430 297L429 296z"/>
<path style="fill:#9f9a98; stroke:none;" d="M426 297L427 298L426 297z"/>
<path style="fill:#d3cecb; stroke:none;" d="M421 298L422 299L421 298z"/>
<path style="fill:#9a9592; stroke:none;" d="M422 298L423 299L422 298z"/>
<path style="fill:#6c6c67; stroke:none;" d="M423 298L424 299L423 298z"/>
<path style="fill:#252421; stroke:none;" d="M415 299C416.248 299.685 416.548 299.749 418 300C416.752 299.315 416.452 299.251 415 299z"/>
</svg>
